{
	"patcher" : 	{
		"fileversion" : 1,
		"appversion" : 		{
			"major" : 8,
			"minor" : 1,
			"revision" : 10,
			"architecture" : "x64",
			"modernui" : 1
		}
,
		"classnamespace" : "box",
		"rect" : [ 59.0, 107.0, 640.0, 480.0 ],
		"bglocked" : 0,
		"openinpresentation" : 1,
		"default_fontsize" : 12.0,
		"default_fontface" : 0,
		"default_fontname" : "Arial",
		"gridonopen" : 1,
		"gridsize" : [ 15.0, 15.0 ],
		"gridsnaponopen" : 1,
		"objectsnaponopen" : 1,
		"statusbarvisible" : 2,
		"toolbarvisible" : 1,
		"lefttoolbarpinned" : 0,
		"toptoolbarpinned" : 0,
		"righttoolbarpinned" : 0,
		"bottomtoolbarpinned" : 0,
		"toolbars_unpinned_last_save" : 0,
		"tallnewobj" : 0,
		"boxanimatetime" : 200,
		"enablehscroll" : 1,
		"enablevscroll" : 1,
		"devicewidth" : 0.0,
		"description" : "",
		"digest" : "",
		"tags" : "",
		"style" : "",
		"subpatcher_template" : "",
		"assistshowspatchername" : 0,
		"boxes" : [ 			{
				"box" : 				{
					"bgcolor" : [ 1.0, 1.0, 1.0, 0.749019607843137 ],
					"color" : [ 0.572549, 0.27451, 0.027451, 1.0 ],
					"fontname" : "Arial Bold",
					"fontsize" : 10.0,
					"id" : "obj-336",
					"maxclass" : "newobj",
					"numinlets" : 0,
					"numoutlets" : 1,
					"outlettype" : [ "" ],
					"patching_rect" : [ 116.600220000000036, 100.0, 63.0, 20.0 ],
					"text" : "r dump40",
					"textcolor" : [ 0.0, 0.0, 0.0, 1.0 ]
				}

			}
, 			{
				"box" : 				{
					"bgcolor" : [ 1.0, 1.0, 1.0, 0.749019607843137 ],
					"color" : [ 0.572549, 0.27451, 0.027451, 1.0 ],
					"fontname" : "Arial Bold",
					"fontsize" : 10.0,
					"id" : "obj-302",
					"maxclass" : "newobj",
					"numinlets" : 0,
					"numoutlets" : 1,
					"outlettype" : [ "" ],
					"patching_rect" : [ 50.0, 100.0, 63.0, 20.0 ],
					"text" : "r dump39",
					"textcolor" : [ 0.0, 0.0, 0.0, 1.0 ]
				}

			}
, 			{
				"box" : 				{
					"bgcolor" : [ 1.0, 1.0, 1.0, 0.749019607843137 ],
					"color" : [ 0.572549, 0.27451, 0.027451, 1.0 ],
					"fontname" : "Arial Bold",
					"fontsize" : 10.0,
					"id" : "obj-314",
					"maxclass" : "newobj",
					"numinlets" : 0,
					"numoutlets" : 1,
					"outlettype" : [ "" ],
					"patching_rect" : [ 185.75, 100.0, 63.0, 20.0 ],
					"text" : "r dump33",
					"textcolor" : [ 0.0, 0.0, 0.0, 1.0 ]
				}

			}
, 			{
				"box" : 				{
					"bgcolor" : [ 1.0, 1.0, 1.0, 0.749019607843137 ],
					"fontname" : "Arial Bold",
					"fontsize" : 10.0,
					"id" : "obj-81",
					"maxclass" : "newobj",
					"numinlets" : 1,
					"numoutlets" : 2,
					"outlettype" : [ "int", "int" ],
					"patching_rect" : [ 165.249938999999813, 134.899901999999997, 45.0, 20.0 ],
					"text" : "ctlin 33",
					"textcolor" : [ 0.0, 0.0, 0.0, 1.0 ]
				}

			}
, 			{
				"box" : 				{
					"bgcolor" : [ 1.0, 1.0, 1.0, 0.749019607843137 ],
					"fontname" : "Arial Bold",
					"fontsize" : 10.0,
					"id" : "obj-82",
					"maxclass" : "newobj",
					"numinlets" : 1,
					"numoutlets" : 2,
					"outlettype" : [ "int", "int" ],
					"patching_rect" : [ 113.249938999999813, 134.899901999999997, 45.0, 20.0 ],
					"text" : "ctlin 40",
					"textcolor" : [ 0.0, 0.0, 0.0, 1.0 ]
				}

			}
, 			{
				"box" : 				{
					"bgcolor" : [ 1.0, 1.0, 1.0, 0.749019607843137 ],
					"fontname" : "Arial Bold",
					"fontsize" : 10.0,
					"id" : "obj-89",
					"maxclass" : "newobj",
					"numinlets" : 1,
					"numoutlets" : 2,
					"outlettype" : [ "int", "int" ],
					"patching_rect" : [ 65.5, 134.899901999999997, 45.0, 20.0 ],
					"text" : "ctlin 39",
					"textcolor" : [ 0.0, 0.0, 0.0, 1.0 ]
				}

			}
, 			{
				"box" : 				{
					"bgcolor" : [ 1.0, 1.0, 1.0, 0.749019607843137 ],
					"fontname" : "Arial Bold",
					"fontsize" : 10.0,
					"id" : "obj-12",
					"maxclass" : "newobj",
					"numinlets" : 3,
					"numoutlets" : 0,
					"patching_rect" : [ 165.0, 221.100004167949692, 52.0, 20.0 ],
					"text" : "ctlout 33",
					"textcolor" : [ 0.0, 0.0, 0.0, 1.0 ]
				}

			}
, 			{
				"box" : 				{
					"activedialcolor" : [ 0.815686274509804, 0.0, 0.0, 1.0 ],
					"activeneedlecolor" : [ 0.0, 0.0, 0.0, 1.0 ],
					"focusbordercolor" : [ 0.627450980392157, 0.627450980392157, 0.627450980392157, 0.0 ],
					"id" : "obj-15",
					"maxclass" : "live.dial",
					"numinlets" : 1,
					"numoutlets" : 2,
					"outlettype" : [ "", "float" ],
					"panelcolor" : [ 1.0, 1.0, 1.0, 1.0 ],
					"parameter_enable" : 1,
					"patching_rect" : [ 165.0, 170.399901999999997, 27.0, 39.0 ],
					"presentation" : 1,
					"presentation_rect" : [ 10.0, 122.0, 27.0, 39.0 ],
					"saved_attribute_attributes" : 					{
						"valueof" : 						{
							"parameter_initial" : [ 0.0 ],
							"parameter_initial_enable" : 1,
							"parameter_longname" : "Noise",
							"parameter_shortname" : "NOISE",
							"parameter_type" : 0,
							"parameter_unitstyle" : 0
						}

					}
,
					"shownumber" : 0,
					"textcolor" : [ 0.125490196078431, 0.137254901960784, 0.152941176470588, 1.0 ],
					"varname" : "mixer_noise"
				}

			}
, 			{
				"box" : 				{
					"bgcolor" : [ 1.0, 1.0, 1.0, 0.749019607843137 ],
					"fontname" : "Arial Bold",
					"fontsize" : 10.0,
					"id" : "obj-9",
					"maxclass" : "newobj",
					"numinlets" : 3,
					"numoutlets" : 0,
					"patching_rect" : [ 113.0, 221.100004167949692, 52.0, 20.0 ],
					"text" : "ctlout 40",
					"textcolor" : [ 0.0, 0.0, 0.0, 1.0 ]
				}

			}
, 			{
				"box" : 				{
					"activedialcolor" : [ 0.815686274509804, 0.0, 0.0, 1.0 ],
					"activeneedlecolor" : [ 0.0, 0.0, 0.0, 1.0 ],
					"focusbordercolor" : [ 0.627450980392157, 0.627450980392157, 0.627450980392157, 0.0 ],
					"id" : "obj-11",
					"maxclass" : "live.dial",
					"numinlets" : 1,
					"numoutlets" : 2,
					"outlettype" : [ "", "float" ],
					"panelcolor" : [ 1.0, 1.0, 1.0, 1.0 ],
					"parameter_enable" : 1,
					"patching_rect" : [ 113.0, 170.399901999999997, 27.0, 39.0 ],
					"presentation" : 1,
					"presentation_rect" : [ 10.0, 68.0, 27.0, 39.0 ],
					"saved_attribute_attributes" : 					{
						"valueof" : 						{
							"parameter_initial" : [ 127 ],
							"parameter_initial_enable" : 1,
							"parameter_longname" : "VCO 2",
							"parameter_shortname" : "VCO 2",
							"parameter_type" : 0,
							"parameter_unitstyle" : 0
						}

					}
,
					"shownumber" : 0,
					"textcolor" : [ 0.125490196078431, 0.137254901960784, 0.152941176470588, 1.0 ],
					"varname" : "mixer_vco2"
				}

			}
, 			{
				"box" : 				{
					"bgcolor" : [ 1.0, 1.0, 1.0, 0.749019607843137 ],
					"fontname" : "Arial Bold",
					"fontsize" : 10.0,
					"id" : "obj-3",
					"maxclass" : "newobj",
					"numinlets" : 3,
					"numoutlets" : 0,
					"patching_rect" : [ 61.0, 221.100004167949692, 52.0, 20.0 ],
					"text" : "ctlout 39",
					"textcolor" : [ 0.0, 0.0, 0.0, 1.0 ]
				}

			}
, 			{
				"box" : 				{
					"activedialcolor" : [ 0.815686274509804, 0.0, 0.0, 1.0 ],
					"activeneedlecolor" : [ 0.0, 0.0, 0.0, 1.0 ],
					"focusbordercolor" : [ 0.627450980392157, 0.627450980392157, 0.627450980392157, 0.0 ],
					"id" : "obj-4",
					"maxclass" : "live.dial",
					"numinlets" : 1,
					"numoutlets" : 2,
					"outlettype" : [ "", "float" ],
					"panelcolor" : [ 1.0, 1.0, 1.0, 1.0 ],
					"parameter_enable" : 1,
					"patching_rect" : [ 61.0, 170.399901999999997, 27.0, 39.0 ],
					"presentation" : 1,
					"presentation_rect" : [ 10.0, 18.0, 27.0, 39.0 ],
					"saved_attribute_attributes" : 					{
						"valueof" : 						{
							"parameter_initial" : [ 0 ],
							"parameter_initial_enable" : 1,
							"parameter_longname" : "VCO 1",
							"parameter_shortname" : "VCO 1",
							"parameter_type" : 0,
							"parameter_unitstyle" : 0
						}

					}
,
					"shownumber" : 0,
					"textcolor" : [ 0.125490196078431, 0.137254901960784, 0.152941176470588, 1.0 ],
					"varname" : "mixer_vco1"
				}

			}
, 			{
				"box" : 				{
					"fontname" : "Arial Bold",
					"fontsize" : 12.0,
					"id" : "obj-8",
					"maxclass" : "comment",
					"numinlets" : 1,
					"numoutlets" : 0,
					"patching_rect" : [ 108.600220000000263, 251.499902023841855, 47.0, 20.0 ],
					"presentation" : 1,
					"presentation_rect" : [ 0.0, 0.0, 47.0, 20.0 ],
					"text" : "MIXER"
				}

			}
 ],
		"lines" : [ 			{
				"patchline" : 				{
					"destination" : [ "obj-9", 0 ],
					"source" : [ "obj-11", 0 ]
				}

			}
, 			{
				"patchline" : 				{
					"destination" : [ "obj-12", 0 ],
					"source" : [ "obj-15", 0 ]
				}

			}
, 			{
				"patchline" : 				{
					"destination" : [ "obj-4", 0 ],
					"source" : [ "obj-302", 0 ]
				}

			}
, 			{
				"patchline" : 				{
					"destination" : [ "obj-15", 0 ],
					"source" : [ "obj-314", 0 ]
				}

			}
, 			{
				"patchline" : 				{
					"destination" : [ "obj-11", 0 ],
					"source" : [ "obj-336", 0 ]
				}

			}
, 			{
				"patchline" : 				{
					"destination" : [ "obj-3", 0 ],
					"source" : [ "obj-4", 0 ]
				}

			}
, 			{
				"patchline" : 				{
					"destination" : [ "obj-15", 0 ],
					"source" : [ "obj-81", 0 ]
				}

			}
, 			{
				"patchline" : 				{
					"destination" : [ "obj-11", 0 ],
					"source" : [ "obj-82", 0 ]
				}

			}
, 			{
				"patchline" : 				{
					"destination" : [ "obj-4", 0 ],
					"source" : [ "obj-89", 0 ]
				}

			}
 ],
		"parameters" : 		{
			"obj-11" : [ "VCO 2", "VCO 2", 0 ],
			"obj-15" : [ "Noise", "NOISE", 0 ],
			"obj-4" : [ "VCO 1", "VCO 1", 0 ],
			"parameterbanks" : 			{

			}
,
			"inherited_shortname" : 1
		}
,
		"dependency_cache" : [  ],
		"autosave" : 0,
		"editing_bgcolor" : [ 0.407843137254902, 0.407843137254902, 0.407843137254902, 1.0 ]
	}

}
